<svg width="1440" height="741" fill="none" xmlns="http://www.w3.org/2000/svg"><g opacity=".5" fill="#FFCCBC"><circle opacity=".63" cx="1360.99" cy="355.458" r="25.919" transform="rotate(86.704 1360.99 355.458)"/><circle opacity=".562" cx="1237.22" cy="595.473" r="25.919" transform="rotate(79.098 1237.22 595.473)" fill-opacity=".6"/><circle opacity=".745" cx="181.035" cy="312.2" r="25.919" transform="rotate(-117.634 181.035 312.2)"/><circle opacity=".543" cx="57.045" cy="34.099" r="25.919" transform="rotate(-66.93 57.045 34.1)"/><circle opacity=".106" cx="1386.96" cy="431.698" r="25.919" transform="rotate(32.956 1386.96 431.698)"/><circle opacity=".106" cx="1236.96" cy="81.698" r="25.919" transform="rotate(32.956 1236.96 81.698)"/><circle opacity=".075" cx="240.284" cy="699.746" r="25.919" transform="rotate(66.421 240.284 699.746)"/><circle opacity=".035" cx="213.694" cy="216.833" r="25.919" transform="rotate(68.45 213.694 216.833)"/><g opacity=".3"><circle cx="193.898" cy="569.88" r="15.34"/><circle opacity=".581" cx="377.004" cy="80.435" r="15.34" transform="rotate(129.803 377.004 80.435)"/><circle opacity=".783" cx="623.621" cy="699.15" r="15.34" transform="rotate(-89.241 623.621 699.15)"/><circle opacity=".985" cx="699.351" cy="725.501" r="15.34" transform="rotate(119.154 699.351 725.501)"/><circle opacity=".267" cx="251.448" cy="176.908" r="15.34" transform="rotate(-84.17 251.448 176.908)"/><circle opacity=".827" cx="549.003" cy="339.756" r="15.34" transform="rotate(174.421 549.003 339.756)"/><circle opacity=".817" cx="929.162" cy="537.084" r="15.34"/><circle opacity=".532" cx="219.736" cy="100.821" r="15.34" transform="rotate(33.97 219.736 100.821)"/><circle opacity=".436" cx="176.347" cy="581.584" r="15.34" transform="rotate(81.127 176.347 581.584)"/><circle opacity=".714" cx="904.934" cy="124.636" r="15.34" transform="rotate(116.111 904.934 124.636)"/><circle opacity=".37" cx="723.097" cy="655.023" r="15.34" transform="rotate(115.097 723.097 655.023)"/><circle opacity=".751" cx="706.822" cy="19.746" r="15.34" transform="rotate(110.534 706.822 19.746)"/><circle opacity=".192" cx="1195.39" cy="544.136" r="15.34" transform="rotate(-55.776 1195.39 544.136)"/><circle opacity=".391" cx="342.905" cy="349.955" r="15.34" transform="rotate(-82.14 342.905 349.955)"/><circle opacity=".945" cx="384.084" cy="740.408" r="15.34" transform="rotate(-72.001 384.084 740.408)"/><circle opacity=".758" cx="684.697" cy="145.719" r="15.34" transform="rotate(76.055 684.697 145.719)"/><circle opacity=".208" cx="1139.62" cy="510.122" r="15.34" transform="rotate(-70.987 1139.62 510.122)"/><circle opacity=".85" cx="20.052" cy="449.756" r="15.34" transform="rotate(67.435 20.052 449.756)"/><circle opacity=".85" cx="1200.05" cy="399.756" r="15.34" transform="rotate(67.435 1200.05 399.756)"/><circle opacity=".14" cx="1034.9" cy="458.888" r="15.34" transform="rotate(-40.565 1034.9 458.888)"/><circle opacity=".135" cx="505.857" cy="218.443" r="15.34" transform="rotate(-38.536 505.857 218.443)"/><circle opacity=".516" cx="919.099" cy="718.32" r="15.34" transform="rotate(96.338 919.099 718.32)"/><circle opacity=".01" cx="1338.72" cy="105.866" r="15.34" transform="rotate(-106.986 1338.72 105.866)"/><circle opacity=".686" cx="82.081" cy="550.5" r="15.34" transform="rotate(78.084 82.081 550.5)"/></g></g></svg>