<svg width="131" height="24" fill="none" xmlns="http://www.w3.org/2000/svg"><path d="M18.147 11.84c1.092 0 1.924 0 1.924-1.144 0-.858-.26-2.236-.26-3.588 0-.858.104-2.106.104-2.34 0-.78-.39-1.248-2.028-1.924-1.248-.494-3.666-1.17-6.136-1.17-1.794 0-4.914.364-7.54 2.47C1.74 6.094.83 9.058.83 12.412c0 3.718 1.144 6.37 3.172 8.112 2.028 1.742 4.94 2.548 8.45 2.548 1.274 0 6.214-.286 6.786-1.638.156-.364.442-2.314.546-2.756.104-.442.806-2.626.806-3.146 0-.598-.494-.91-.936-.91-.572 0-3.64.78-5.772.78-2.782 0-4.706-.624-4.706-3.718 0-1.17.26-3.328 2.262-3.328 1.222 0 1.69.754 1.69 1.82 0 1.222 0 1.664 1.872 1.664h3.146zM30.88 5.548c-5.564 0-9.334 3.016-9.334 8.788s3.744 8.814 9.334 8.814 9.334-2.964 9.334-8.84c0-5.642-3.666-8.762-9.308-8.762h-.026zm-.026 5.642c1.508 0 1.664 1.898 1.664 3.016 0 1.066-.104 3.042-1.612 3.042-1.456 0-1.664-1.872-1.664-2.938 0-.988.208-3.12 1.586-3.12h.026zm20.748-5.2c-.962 0-1.898.286-2.652.91-.442.364-.52.364-.676.364-.182 0-.208-.078-.39-.676-.156-.546-.52-.572-.728-.572-.338 0-.806.182-2.106.182-.39 0-2.34-.182-2.782-.182-1.04 0-1.066.884-1.066 1.092 0 .338.052.546.442 1.092.312.442.338.65.338 2.34v7.618c0 1.586-.052 1.872-.338 2.34-.39.624-.442.728-.442 1.092 0 .286.104 1.092 1.066 1.092.702 0 2.002-.182 3.666-.182 1.586 0 2.886.182 3.484.182.91 0 1.04-.78 1.04-1.066 0-.39-.052-.494-.442-1.118-.234-.39-.338-.546-.338-2.34v-1.352c0-1.378-.234-1.768-.234-2.314 0-.832.65-1.456 1.482-1.456.234 0 1.066.13 1.3.13.65 0 .858-.572.858-.884-.052-.65-.156-1.274-.156-1.924 0-1.846.156-2.626.156-3.224 0-1.144-.936-1.144-1.456-1.144h-.026zM64.4 20.108c0 1.794 0 2.574 1.17 2.574.806 0 1.742-.182 2.6-.182 1.352 0 2.808.182 3.302.182.884 0 1.04-.754 1.04-1.066 0-.39-.052-.494-.442-1.118-.312-.494-.338-.702-.338-2.34v-5.98c0-.78-.026-3.146-1.248-4.602-1.118-1.326-2.834-1.95-4.55-1.95-1.014 0-2.444.13-3.796 1.482-.52.52-.65.598-.806.598-.234 0-.26-.234-.286-.624-.052-.416-.13-1.066-.962-1.066-.364 0-1.456.182-2.366.182-.91 0-1.794-.182-2.704-.182-1.04 0-1.066.832-1.066 1.092 0 .39.078.494.442 1.092.286.468.338.65.338 2.34v7.618c0 1.586-.052 1.872-.338 2.34-.39.624-.442.728-.442 1.092 0 .286.104 1.092 1.066 1.092.728 0 2.288-.182 3.458-.182 1.508 0 2.782.182 3.328.182.858 0 1.04-.702 1.04-1.066 0-.416-.104-.546-.442-1.118-.234-.39-.338-.546-.338-2.34v-4.654c0-.234-.078-.598-.078-.78 0-.676.416-1.04 1.144-1.04 1.274 0 1.274 1.04 1.274 2.392v6.032zm25.296-4.342c.936 0 1.274-.338 1.274-1.716 0-5.512-3.12-8.424-8.554-8.424-6.5 0-9.048 4.03-9.048 8.762 0 6.136 4.082 8.684 9.776 8.684 2.132 0 4.238-.338 4.992-.52.91-.208 1.17-.468 1.274-1.014.156-.78.286-1.69.494-2.366.234-.754.416-1.326.416-1.534a.722.722 0 00-.754-.676c-.234 0-1.066.208-1.586.312-1.586.312-2.418.39-3.692.39-.936 0-3.224-.156-3.224-1.56 0-.338.234-.338.806-.338h7.826zm-8.008-2.886c-.676 0-.78-.182-.78-.546 0-1.014.702-1.742 1.716-1.742 1.04 0 1.69.676 1.69 1.716 0 .416-.182.572-1.04.572h-1.586zm11.05 5.278c0 1.586-.052 1.872-.338 2.34-.39.624-.442.728-.442 1.092 0 .286.104 1.092 1.066 1.092.728 0 2.262-.182 3.458-.182 1.508 0 2.782.182 3.328.182.858 0 1.04-.702 1.04-1.066 0-.416-.104-.546-.442-1.118-.234-.39-.338-.546-.338-2.34V3.546c0-.52 0-1.482-.858-1.482-.338 0-1.586.182-2.86.182-1.092 0-2.158-.182-3.25-.182-.416 0-1.144.13-1.144 1.092 0 .39.052.494.442 1.118.286.468.338.546.338 2.314v11.57zM106.64.79c-1.534 0-4.212.26-4.212 2.028 0 1.612 1.846 2.002 4.212 2.002 2.106 0 4.186-.286 4.186-2.002 0-1.846-2.912-2.028-4.16-2.028h-.026zm-3.874 17.368c0 1.586-.026 1.872-.338 2.34-.416.624-.442.728-.442 1.092 0 .26.104 1.092 1.066 1.092.702 0 1.612-.182 3.666-.182 1.586 0 2.912.182 3.484.182.884 0 1.04-.702 1.04-1.066 0-.416-.104-.546-.442-1.118-.234-.39-.338-.546-.338-2.34V10.54c0-1.794.078-1.95.338-2.34.39-.598.442-.702.442-1.118 0-.364-.104-1.066-1.092-1.066-.806 0-1.924.312-3.328.312-1.69 0-2.678-.312-3.77-.312-.676 0-1.066.416-1.066 1.092 0 .39.078.494.442 1.092.312.468.338.702.338 2.34v7.618zm12.88-12.428c-1.066 0-1.144.676-1.196 1.17-.182 1.352-.234 1.742-.546 3.016-.078.364-.26.936-.26 1.17 0 .338.364.832.962.832.208 0 .338-.026 1.586-.39 1.066-.312 2.808-.546 3.822-.546 1.56 0 2.184.364 2.184 1.092 0 .338-.104.546-.39.624-.26.078-.702.078-1.352.104-5.096.026-8.06 1.456-8.06 4.94 0 2.21 1.404 5.174 5.694 5.174 1.976 0 2.704-.572 3.952-1.534.182-.156.286-.234.442-.234.182 0 .208.156.286.65.078.468.26.884.91.884.338 0 1.82-.182 2.496-.182.988 0 2.314.182 2.938.182.91 0 1.066-.754 1.066-1.066 0-.39-.052-.494-.442-1.118-.26-.39-.338-.546-.338-2.34v-5.694c0-2.08 0-3.458-1.274-4.81-1.092-1.17-3.094-2.028-6.136-2.028-1.04 0-2.782.078-3.822.26-.156.026-1.04.208-1.222.208-.156 0-.312-.078-.494-.182a1.644 1.644 0 00-.78-.182h-.026zm6.448 10.92c0 .598-.234 1.82-1.586 1.82-.598 0-1.482-.312-1.482-1.274 0-1.43 1.846-1.43 2.34-1.43.676 0 .728.312.728.624v.26z" fill="#0B4141"/></svg>