<svg width="23" height="32" fill="none" xmlns="http://www.w3.org/2000/svg"><g clip-path="url(#clip0_0_95)"><path d="M6.001 31.122c3.035 0 5.499-2.258 5.499-5.04V21.04H6.001c-3.035 0-5.499 2.258-5.499 5.04 0 2.783 2.464 5.04 5.5 5.04z" fill="#0ACF83"/><path d="M.502 16c0-2.783 2.464-5.04 5.5-5.04H11.5v10.08H6.001C2.966 21.04.502 18.782.502 16z" fill="#A259FF"/><path d="M.504 5.919c0-2.782 2.463-5.04 5.499-5.04h5.499v10.08h-5.5C2.968 10.96.505 8.701.505 5.92z" fill="#F24E1E"/><path d="M11.5.878h5.499c3.035 0 5.499 2.259 5.499 5.04 0 2.783-2.464 5.041-5.5 5.041H11.5V.88z" fill="#FF7262"/><path d="M22.498 16c0 2.782-2.464 5.04-5.5 5.04-3.035 0-5.498-2.258-5.498-5.04 0-2.783 2.463-5.04 5.499-5.04 3.035 0 5.499 2.257 5.499 5.04z" fill="#1ABCFE"/></g><defs><clipPath id="clip0_0_95"><path fill="#fff" transform="translate(.5 .878)" d="M0 0h22v30.243H0z"/></clipPath></defs></svg>