<svg width="118" height="118" fill="none" xmlns="http://www.w3.org/2000/svg"><g clip-path="url(#clip0_0_109)"><path d="M88.5-.001h-59C13.208-.001 0 13.207 0 29.499v59c0 16.292 13.208 29.5 29.5 29.5h59c16.292 0 29.5-13.208 29.5-29.5v-59c0-16.292-13.208-29.5-29.5-29.5z" fill="url(#paint0_linear_0_109)"/><path d="M42.024 80.954l-3.112 5.414a4.134 4.134 0 01-5.646 1.507 4.134 4.134 0 01-1.506-5.646l2.3-3.99.216-.381c.398-.563 1.374-1.54 3.311-1.358 0 0 4.587.497 4.917 2.881 0 .017.05.795-.48 1.573zm44.288-13.808h-9.735c-.662-.05-.96-.281-1.06-.414v-.016l-10.43-18.047-.016.017-.63-.894c-1.026-1.573-2.649 2.434-2.649 2.434-1.937 4.47.282 9.536 1.044 11.076l14.47 25.083a4.134 4.134 0 005.646 1.506 4.134 4.134 0 001.506-5.646l-3.626-6.274c-.066-.15-.198-.563.547-.563h4.917a4.123 4.123 0 004.122-4.123 4.102 4.102 0 00-4.106-4.139zm-18.907 5.613s.513 2.649-1.49 2.649h-36.01a4.123 4.123 0 010-8.245h9.255c1.49-.083 1.855-.944 1.855-.944L53.1 45.292c.216-.397.034-.778 0-.845l-3.99-6.904a4.138 4.138 0 011.507-5.645 4.137 4.137 0 015.646 1.506l1.854 3.212 1.855-3.195a4.133 4.133 0 015.645-1.507 4.134 4.134 0 011.507 5.646L50.319 66.666c-.066.182-.1.463.447.497h10.05v.099c-.017-.017 5.794.066 6.59 5.497z" fill="#fff"/></g><defs><linearGradient id="paint0_linear_0_109" x1="58.992" y1="118.006" x2="58.992" y2=".007" gradientUnits="userSpaceOnUse"><stop stop-color="#1D76F2"/><stop offset="1" stop-color="#1AC2FB"/></linearGradient><clipPath id="clip0_0_109"><path fill="#fff" transform="translate(0 -.001)" d="M0 0h118v118H0z"/></clipPath></defs></svg>