<svg width="1362" height="876" fill="none" xmlns="http://www.w3.org/2000/svg"><g opacity=".3" fill="#FFCCBC"><circle opacity=".63" r="24.5" transform="scale(1 -1) rotate(86.704 623.622 -133.114)"/><circle opacity=".562" r="24.5" transform="scale(1 -1) rotate(79.098 774.501 551.625)" fill-opacity=".6"/><circle opacity=".263" r="24.5" transform="scale(1 -1) rotate(-89.241 147.098 -265.696)"/><circle opacity=".345" r="24.5" transform="scale(-1 1) rotate(62.366 -606.966 173.939)"/><circle opacity=".543" r="24.5" transform="scale(1 -1) rotate(-66.93 -611.243 -462.883)"/><circle opacity=".106" r="24.5" transform="scale(1 -1) rotate(32.956 1446.753 1982.422)"/><circle opacity=".524" r="24.5" transform="scale(1 -1) rotate(-46.142 87.502 -630.693)"/><circle opacity=".075" r="24.5" transform="scale(1 -1) rotate(66.421 277.627 66.31)"/><circle opacity=".035" r="24.5" transform="scale(1 -1) rotate(68.45 594.416 -186.931)"/><g opacity=".3"><circle cx="183.5" cy="539.59" r="14.5"/><circle opacity=".581" cx="356.578" cy="76.947" r="14.5" transform="rotate(129.803 356.578 76.947)"/><circle opacity=".783" cx="589.691" cy="661.781" r="14.5" transform="rotate(-89.241 589.691 661.781)"/><circle opacity=".985" cx="661.273" cy="686.689" r="14.5" transform="rotate(119.154 661.273 686.689)"/><circle opacity=".267" cx="237.898" cy="168.138" r="14.5" transform="rotate(-84.17 237.898 168.138)"/><circle opacity=".827" cx="519.159" cy="322.068" r="14.5" transform="rotate(174.421 519.159 322.068)"/><circle opacity=".817" cx="878.5" cy="508.59" r="14.5"/><circle opacity=".532" cx="207.923" cy="96.217" r="14.5" transform="rotate(33.97 207.923 96.217)"/><circle opacity=".436" cx="166.91" cy="550.653" r="14.5" transform="rotate(81.127 166.91 550.653)"/><circle opacity=".324" cx="1085.1" cy="780.003" r="14.5" transform="rotate(58.816 1085.1 780.003)"/><circle opacity=".37" cx="683.719" cy="620.071" r="14.5" transform="rotate(115.097 683.719 620.071)"/><circle opacity=".751" cx="668.335" cy="19.582" r="14.5" transform="rotate(110.534 668.335 19.582)"/><circle opacity=".192" cx="1130.14" cy="515.256" r="14.5" transform="rotate(-55.776 1130.14 515.256)"/><circle opacity=".391" cx="324.347" cy="331.709" r="14.5" transform="rotate(-82.14 324.347 331.709)"/><circle opacity=".945" cx="363.271" cy="700.78" r="14.5" transform="rotate(-72.001 363.271 700.78)"/><circle opacity=".666" cx="1344.04" cy="788.762" r="14.5" transform="rotate(-167.325 1344.04 788.762)"/><circle opacity=".758" cx="647.422" cy="138.657" r="14.5" transform="rotate(76.055 647.422 138.657)"/><circle opacity=".208" cx="1077.43" cy="483.105" r="14.5" transform="rotate(-70.987 1077.43 483.105)"/><circle opacity=".85" cx="19.174" cy="426.044" r="14.5" transform="rotate(67.435 19.174 426.044)"/><circle opacity=".14" cx="978.445" cy="434.676" r="14.5" transform="rotate(-40.565 978.445 434.676)"/><circle opacity=".135" cx="478.376" cy="207.398" r="14.5" transform="rotate(-38.536 478.376 207.398)"/><circle opacity=".516" cx="868.988" cy="679.901" r="14.5" transform="rotate(96.338 868.988 679.901)"/><circle opacity=".01" cx="1265.63" cy="100.986" r="14.5" transform="rotate(-106.986 1265.63 100.986)"/><circle opacity=".686" cx="77.806" cy="521.271" r="14.5" transform="rotate(78.084 77.806 521.271)"/></g></g></svg>